<svg width="32" height="32" viewBox="0 0 32 32" fill="none" xmlns="http://www.w3.org/2000/svg">
<path d="M22.6875 22.432C22.4941 22.3066 22.259 22.2628 22.0335 22.3102C21.808 22.3576 21.6104 22.4923 21.4838 22.6849C20.2541 24.5688 17.9951 26.8802 15.9803 27.6564C13.9655 28.4327 12.3869 28.1536 11.7589 27.6564C11.4885 27.4209 10.782 26.7842 11.3838 24.6125C11.785 23.1646 14.2795 16.3441 14.8726 14.6869L12.9712 14.9311C12.3694 16.5534 10.1017 22.6413 9.69178 24.1589C9.09869 26.3307 9.39524 27.9094 10.6425 29.0083C11.5139 29.6197 12.5616 29.9291 13.6254 29.8892C14.6576 29.8743 15.678 29.6673 16.6344 29.2787C19.0679 28.328 21.6234 25.6853 22.9666 23.6356C23.0275 23.5383 23.0686 23.4299 23.0875 23.3167C23.1064 23.2035 23.1028 23.0877 23.0769 22.9758C23.051 22.864 23.0032 22.7584 22.9364 22.6651C22.8696 22.5718 22.785 22.4925 22.6875 22.432Z" fill="#333333"/>
<path d="M17.3748 9.82887C18.1511 9.82887 18.9099 9.59868 19.5554 9.16741C20.2008 8.73614 20.7039 8.12316 21.0009 7.40598C21.298 6.68881 21.3757 5.89965 21.2243 5.1383C21.0728 4.37694 20.699 3.6776 20.1501 3.1287C19.6012 2.57979 18.9019 2.20599 18.1405 2.05454C17.3792 1.9031 16.59 1.98083 15.8728 2.27789C15.1557 2.57496 14.5427 3.07802 14.1114 3.72346C13.6801 4.3689 13.45 5.12773 13.45 5.904C13.45 6.94494 13.8635 7.94325 14.5995 8.6793C15.3356 9.41536 16.3339 9.82887 17.3748 9.82887ZM17.3748 3.72352C17.8061 3.72352 18.2277 3.8514 18.5862 4.09099C18.9448 4.33059 19.2243 4.67113 19.3893 5.06956C19.5544 5.468 19.5975 5.90642 19.5134 6.32939C19.4293 6.75236 19.2216 7.14089 18.9167 7.44584C18.6117 7.75078 18.2232 7.95845 17.8002 8.04259C17.3772 8.12672 16.9388 8.08354 16.5404 7.91851C16.142 7.75347 15.8014 7.47399 15.5618 7.11541C15.3222 6.75683 15.1943 6.33526 15.1943 5.904C15.1943 5.3257 15.4241 4.77108 15.833 4.36216C16.2419 3.95324 16.7965 3.72352 17.3748 3.72352Z" fill="#333333"/>
<path d="M10.8431 13.3176C10.8954 13.3176 16.3117 12.6024 17.5851 12.4454C18.1521 12.3582 18.5794 12.4454 18.719 12.5763C18.8585 12.7071 18.9022 13.274 18.6579 14.0416C18.1259 15.6638 15.4395 23.6357 14.6546 25.9993C15.0383 25.9206 15.4146 25.8098 15.7797 25.6679C16.1289 25.5235 16.4645 25.3484 16.7827 25.1446C17.8555 22.0396 19.8616 16.0214 20.3151 14.6434C20.7687 13.2653 20.6553 12.2187 20.0535 11.5035C19.7101 11.1554 19.2804 10.9049 18.8083 10.7777C18.3363 10.6505 17.8388 10.6511 17.3671 10.7796C16.1199 10.9104 10.8518 11.5994 10.625 11.6517C10.3937 11.6818 10.1838 11.8026 10.0415 11.9874C9.89921 12.1722 9.83616 12.406 9.86623 12.6373C9.8963 12.8686 10.017 13.0785 10.2019 13.2209C10.3867 13.3632 10.6205 13.4262 10.8518 13.3961L10.8431 13.3176Z" fill="#333333"/>
</svg>
