<svg width="33" height="28" viewBox="0 0 33 28" fill="none" xmlns="http://www.w3.org/2000/svg">
<path d="M1.20671 12.8749C0.490667 13.591 0.490667 14.7519 1.20671 15.468L12.8753 27.1366C13.5913 27.8526 14.7523 27.8526 15.4683 27.1366C16.1843 26.4205 16.1843 25.2596 15.4683 24.5435L5.09624 14.1715L15.4683 3.79939C16.1844 3.08335 16.1844 1.92242 15.4683 1.20637C14.7523 0.490332 13.5913 0.490331 12.8753 1.20637L1.20671 12.8749ZM16.6715 14.1715V16.005H16.6738L16.6715 14.1715ZM2.50322 16.005H16.6715V12.3379H2.50322V16.005ZM16.6738 16.005L32.5075 15.9851L32.5029 12.318L16.6692 12.3379L16.6738 16.005Z" fill="#9B3E00"/>
</svg>
