<svg width="32" height="26" viewBox="0 0 32 26" fill="none" xmlns="http://www.w3.org/2000/svg">
<path d="M16.0002 21.4285C14.644 21.4285 13.3182 21.0264 12.1906 20.2729C11.0629 19.5194 10.184 18.4485 9.66504 17.1955C9.14604 15.9425 9.01024 14.5638 9.27483 13.2336C9.53941 11.9035 10.1925 10.6816 11.1515 9.72265C12.1105 8.76366 13.3323 8.11058 14.6624 7.84599C15.9926 7.58141 17.3713 7.7172 18.6243 8.23621C19.8773 8.75521 20.9482 9.6341 21.7017 10.7618C22.4552 11.8894 22.8574 13.2152 22.8574 14.5714C22.8574 16.39 22.1349 18.1341 20.8489 19.4201C19.563 20.7061 17.8188 21.4285 16.0002 21.4285ZM16.0002 9.99995C15.0961 9.99995 14.2122 10.2681 13.4605 10.7704C12.7087 11.2727 12.1228 11.9866 11.7768 12.822C11.4308 13.6573 11.3402 14.5764 11.5166 15.4632C11.693 16.35 12.1284 17.1645 12.7677 17.8039C13.407 18.4432 14.2216 18.8786 15.1084 19.055C15.9951 19.2314 16.9143 19.1408 17.7496 18.7948C18.5849 18.4488 19.2989 17.8629 19.8012 17.1111C20.3035 16.3594 20.5716 15.4755 20.5716 14.5714C20.5716 13.359 20.09 12.1962 19.2327 11.3389C18.3754 10.4816 17.2126 9.99995 16.0002 9.99995V9.99995Z" fill="#116EAD"/>
<path d="M30.8571 26H1.14286C0.839753 26 0.549062 25.8796 0.334735 25.6653C0.120408 25.451 0 25.1603 0 24.8572V5.42861C0 5.1255 0.120408 4.83481 0.334735 4.62048C0.549062 4.40616 0.839753 4.28575 1.14286 4.28575H8.52571L10.48 1.37146C10.5835 1.21425 10.7243 1.08505 10.8898 0.995326C11.0553 0.905606 11.2403 0.858152 11.4286 0.857178H20.5714C20.7597 0.858152 20.9447 0.905606 21.1102 0.995326C21.2757 1.08505 21.4165 1.21425 21.52 1.37146L23.4743 4.28575H30.8571C31.1602 4.28575 31.4509 4.40616 31.6653 4.62048C31.8796 4.83481 32 5.1255 32 5.42861V24.8572C32 25.1603 31.8796 25.451 31.6653 25.6653C31.4509 25.8796 31.1602 26 30.8571 26ZM2.28571 23.7143H29.7143V6.57146H22.8571C22.6689 6.57049 22.4838 6.52303 22.3183 6.43332C22.1529 6.3436 22.0121 6.21439 21.9086 6.05718L19.9543 3.14289H12.0457L10.0914 6.05718C9.9879 6.21439 9.84714 6.3436 9.68166 6.43332C9.51618 6.52303 9.33109 6.57049 9.14286 6.57146H2.28571V23.7143Z" fill="#116EAD"/>
</svg>
