<svg width="23" height="21" viewBox="0 0 23 21" fill="none" xmlns="http://www.w3.org/2000/svg">
<path d="M11.5015 0C5.15036 0 0.002981 4.36406 0.002981 9.75C0.002981 11.9812 0.896811 14.025 2.37904 15.6703C1.70979 17.5172 0.317393 19.0828 0.294935 19.1016C-0.00151061 19.4297 -0.0823595 19.9078 0.0883215 20.3203C0.259003 20.7328 0.649772 21 1.08097 21C3.8433 21 6.02173 19.7953 7.32879 18.8297C8.62686 19.2563 10.0282 19.5 11.5015 19.5C17.8526 19.5 23 15.1359 23 9.75C23 4.36406 17.8526 0 11.5015 0ZM11.5015 17.25C10.3022 17.25 9.11645 17.0578 7.98007 16.6828L6.96048 16.3453L6.08462 16.9922C5.44232 17.4656 4.56196 17.9953 3.50194 18.3516C3.82983 17.7844 4.14873 17.1469 4.39577 16.4672L4.87188 15.15L3.94661 14.1281C3.13363 13.2234 2.15895 11.7281 2.15895 9.75C2.15895 5.61563 6.34962 2.25 11.5015 2.25C16.6534 2.25 20.844 5.61563 20.844 9.75C20.844 13.8844 16.6534 17.25 11.5015 17.25Z" fill="white"/>
</svg>
