<svg width="16" height="17" viewBox="0 0 16 17" fill="none" xmlns="http://www.w3.org/2000/svg">
<g filter="url(#filter0_d)">
<path d="M2.06799 13.6659C1.96649 13.6657 1.86613 13.6444 1.77331 13.6033C1.68049 13.5623 1.59722 13.5023 1.52881 13.4273C1.45916 13.353 1.40602 13.2647 1.37286 13.1684C1.3397 13.072 1.32728 12.9697 1.3364 12.8682L1.51564 10.8968L9.79571 2.61742L12.3833 5.20501L4.10545 13.4837L2.13456 13.663C2.11243 13.665 2.09021 13.666 2.06799 13.6659ZM12.8998 4.68763L10.3129 2.10005L11.8646 0.547935C11.9326 0.479897 12.0133 0.425921 12.1021 0.389095C12.1909 0.352268 12.2861 0.333313 12.3822 0.333313C12.4784 0.333313 12.5736 0.352268 12.6624 0.389095C12.7512 0.425921 12.8319 0.479897 12.8998 0.547935L14.4515 2.10005C14.5195 2.16801 14.5735 2.24872 14.6103 2.33756C14.6471 2.42639 14.6661 2.52162 14.6661 2.61779C14.6661 2.71395 14.6471 2.80918 14.6103 2.89801C14.5735 2.98685 14.5195 3.06756 14.4515 3.13552L12.9006 4.6869L12.8998 4.68763Z" fill="white"/>
</g>
<defs>
<filter id="filter0_d" x="0.000238061" y="0.333313" width="15.9991" height="15.9991" filterUnits="userSpaceOnUse" color-interpolation-filters="sRGB">
<feFlood flood-opacity="0" result="BackgroundImageFix"/>
<feColorMatrix in="SourceAlpha" type="matrix" values="0 0 0 0 0 0 0 0 0 0 0 0 0 0 0 0 0 0 127 0" result="hardAlpha"/>
<feOffset dy="1.33326"/>
<feGaussianBlur stdDeviation="0.666629"/>
<feColorMatrix type="matrix" values="0 0 0 0 0 0 0 0 0 0 0 0 0 0 0 0 0 0 0.25 0"/>
<feBlend mode="normal" in2="BackgroundImageFix" result="effect1_dropShadow"/>
<feBlend mode="normal" in="SourceGraphic" in2="effect1_dropShadow" result="shape"/>
</filter>
</defs>
</svg>
