<svg width="16" height="16" viewBox="0 0 16 16" fill="none" xmlns="http://www.w3.org/2000/svg">
<path d="M6.5 0.5C5.57207 0.50105 4.68244 0.870137 4.02629 1.52629C3.37014 2.18244 3.00105 3.07206 3 4V6.49003C3.00032 6.90829 3.10525 7.31982 3.30525 7.68716L4.16322 9.26006L1.8875 10.7393C1.53776 10.9657 1.25037 11.2762 1.05165 11.6424C0.852931 12.0086 0.749218 12.4187 0.750004 12.8354V15.5H9.75V14.5H1.75V12.8354C1.74954 12.5854 1.81177 12.3393 1.93101 12.1196C2.05025 11.8998 2.22268 11.7135 2.43254 11.5777L5.48441 9.59397L4.18316 7.20831C4.06316 6.98791 4.0002 6.74099 4 6.49003V4C4 3.33696 4.2634 2.70107 4.73224 2.23223C5.20108 1.76339 5.83696 1.5 6.5 1.5C7.16305 1.5 7.79893 1.76339 8.26777 2.23223C8.73661 2.70107 9 3.33696 9 4V6.49003C8.99981 6.74099 8.93685 6.98791 8.81685 7.20831L7.51563 9.59397L9.75 11.0463V9.85366L8.83679 9.25991L9.69475 7.68697C9.89474 7.31969 9.99967 6.90822 10 6.49003V4C9.99895 3.07206 9.62987 2.18244 8.97372 1.52629C8.31757 0.870137 7.42794 0.50105 6.5 0.5V0.5Z" fill="#333333"/>
<path d="M13.25 12.5V10.5H12.25V12.5H10.25V13.5H12.25V15.5H13.25V13.5H15.25V12.5H13.25Z" fill="#333333"/>
</svg>
