<svg width="34" height="33" viewBox="0 0 34 33" fill="none" xmlns="http://www.w3.org/2000/svg">
<path d="M27.5777 20.4078C29.8507 20.4078 31.6933 18.6506 31.6933 16.4829C31.6933 14.3153 29.8507 12.558 27.5777 12.558C25.3048 12.558 23.4622 14.3153 23.4622 16.4829C23.4622 18.6506 25.3048 20.4078 27.5777 20.4078Z" fill="#333333"/>
<path d="M23.4621 30.22H21.4043V25.3139C21.4043 24.0127 20.8623 22.7648 19.8975 21.8448C18.9327 20.9247 17.6242 20.4078 16.2598 20.4078H10.0865C8.72211 20.4078 7.4136 20.9247 6.44883 21.8448C5.48406 22.7648 4.94205 24.0127 4.94205 25.3139V30.22H2.88428V25.3139C2.88428 23.4923 3.64308 21.7452 4.99376 20.4571C6.34444 19.169 8.17635 18.4454 10.0865 18.4454H16.2598C18.17 18.4454 20.0019 19.169 21.3526 20.4571C22.7032 21.7452 23.4621 23.4923 23.4621 25.3139V30.22Z" fill="#333333"/>
<path d="M13.1744 4.70865C14.1919 4.70865 15.1865 4.99639 16.0325 5.53548C16.8785 6.07457 17.5379 6.84079 17.9272 7.73726C18.3166 8.63373 18.4185 9.62018 18.22 10.5719C18.0215 11.5236 17.5315 12.3977 16.8121 13.0839C16.0926 13.77 15.1759 14.2373 14.178 14.4266C13.1801 14.6159 12.1457 14.5187 11.2057 14.1474C10.2657 13.776 9.46222 13.1472 8.89694 12.3404C8.33166 11.5336 8.02995 10.5851 8.02995 9.61474C8.02995 8.31357 8.57195 7.06568 9.53672 6.14561C10.5015 5.22554 11.81 4.70865 13.1744 4.70865ZM13.1744 2.74622C11.7499 2.74622 10.3575 3.14905 9.17305 3.90377C7.98865 4.65849 7.06553 5.73121 6.52041 6.98627C5.97529 8.24133 5.83266 9.62236 6.11056 10.9547C6.38846 12.2871 7.0744 13.5109 8.08165 14.4715C9.0889 15.4321 10.3722 16.0863 11.7693 16.3513C13.1664 16.6163 14.6145 16.4803 15.9306 15.9604C17.2466 15.4406 18.3714 14.5602 19.1628 13.4307C19.9542 12.3012 20.3766 10.9732 20.3766 9.61474C20.3766 7.7931 19.6178 6.04606 18.2671 4.75796C16.9164 3.46986 15.0845 2.74622 13.1744 2.74622Z" fill="#333333"/>
</svg>
