<svg width="32" height="27" viewBox="0 0 32 27" fill="none" xmlns="http://www.w3.org/2000/svg">
<path d="M23.7809 15.2637L17.2623 19.2994C16.7092 19.6395 16.0004 19.2257 16.0004 18.5373V16.962C16.0004 16.962 10.7336 16.3474 7.80615 21.8786C8.97589 12.0454 14.2448 12.0454 16.0004 12.0454V10.4701C16.0004 9.78176 16.7092 9.36794 17.2623 9.71006L23.7809 13.7437C24.334 14.0837 24.334 14.9237 23.7809 15.2637Z" fill="#B20000"/>
<path d="M0.635983 4.46579L0.717925 6.24805C0.177443 7.03376 -0.0704714 7.9841 0.0173148 8.93372L1.32225 23.2737C1.41476 24.2917 1.88443 25.2383 2.63907 25.9277C3.3937 26.6172 4.3788 26.9996 5.40095 27H26.5995C27.6217 26.9996 28.6068 26.6172 29.3614 25.9277C30.1161 25.2383 30.5857 24.2917 30.6782 23.2737L31.9832 8.93372C32.0347 8.36672 31.9675 7.7952 31.7858 7.25562C31.6042 6.71604 31.312 6.22025 30.9281 5.79986C30.5441 5.37947 30.0768 5.04372 29.5558 4.81403C29.0349 4.58433 28.4718 4.46573 27.9024 4.46579H19.745C18.6585 4.46556 17.6165 4.03374 16.8484 3.26533L15.1521 1.56911C14.384 0.800698 13.342 0.368884 12.2555 0.368652H4.73312C3.64649 0.368652 2.60437 0.800314 1.83601 1.56868C1.06764 2.33704 0.635983 3.37916 0.635983 4.46579V4.46579ZM2.05769 8.7473C2.03208 8.46388 2.0658 8.17823 2.1567 7.90856C2.2476 7.6389 2.39368 7.39113 2.58565 7.18105C2.77761 6.97097 3.01124 6.80319 3.27163 6.6884C3.53203 6.57362 3.81349 6.51434 4.09806 6.51436H27.9024C28.187 6.51434 28.4685 6.57362 28.7289 6.6884C28.9893 6.80319 29.2229 6.97097 29.4149 7.18105C29.6068 7.39113 29.7529 7.6389 29.8438 7.90856C29.9347 8.17823 29.9684 8.46388 29.9428 8.7473L28.6399 23.0873C28.5939 23.5966 28.359 24.0703 27.9815 24.4153C27.6039 24.7602 27.111 24.9515 26.5995 24.9515H5.40095C4.88989 24.951 4.39746 24.7595 4.02034 24.4146C3.64321 24.0697 3.40862 23.5963 3.36263 23.0873L2.05769 8.7473ZM12.2555 2.41722C12.7987 2.41734 13.3197 2.63324 13.7038 3.01745L15.1521 4.46579H4.09806C3.60641 4.46579 3.13524 4.55183 2.69889 4.71162L2.68455 4.42482C2.69528 3.88864 2.91583 3.37804 3.29886 3.00268C3.68188 2.62731 4.19683 2.41711 4.73312 2.41722H12.2555V2.41722Z" fill="#B20000"/>
</svg>
