<svg width="19" height="24" viewBox="0 0 19 24" fill="none" xmlns="http://www.w3.org/2000/svg">
<path d="M9.50017 0.00408936C7.0699 0.00695642 4.73999 0.97365 3.02153 2.69212C1.30306 4.41058 0.336373 6.7405 0.333506 9.17077C0.330595 11.1568 0.979323 13.0889 2.18017 14.6708C2.18017 14.6708 2.43017 14.9999 2.47101 15.0474L9.50017 23.3375L16.5327 15.0433C16.5693 14.9991 16.8202 14.6708 16.8202 14.6708L16.821 14.6683C18.0213 13.0871 18.6697 11.1559 18.6668 9.17077C18.664 6.7405 17.6973 4.41058 15.9788 2.69212C14.2604 0.97365 11.9304 0.00695642 9.50017 0.00408936ZM12.5002 13.3374L9.50017 11.4283L6.50017 13.3374L7.00017 9.94244L4.50017 7.64827L8.00017 7.22577L9.50017 4.17076L11.0935 7.2266L14.5002 7.64827L12.0002 9.94244L12.5002 13.3374Z" fill="#333333"/>
</svg>
