<svg width="27" height="29" viewBox="0 0 27 29" fill="none" xmlns="http://www.w3.org/2000/svg">
<path d="M20.9337 13.5307C21.6938 20.5627 24.6833 22.6887 24.6833 22.6887H1.13403C1.13403 22.6887 5.05891 19.8981 5.05891 10.1291C5.05891 7.90893 5.88575 5.77904 7.35757 4.20909C8.83071 2.63914 10.8285 1.75604 12.9086 1.75604C13.3495 1.75604 13.7878 1.79529 14.2169 1.87379" stroke="#333333" stroke-width="1.96244" stroke-linecap="round" stroke-linejoin="round"/>
<path d="M22.0667 9.60579C23.1077 9.60579 24.106 9.19228 24.842 8.45622C25.5781 7.72016 25.9916 6.72186 25.9916 5.68091C25.9916 4.63997 25.5781 3.64167 24.842 2.90561C24.106 2.16955 23.1077 1.75604 22.0667 1.75604C21.0258 1.75604 20.0275 2.16955 19.2914 2.90561C18.5554 3.64167 18.1418 4.63997 18.1418 5.68091C18.1418 6.72186 18.5554 7.72016 19.2914 8.45622C20.0275 9.19228 21.0258 9.60579 22.0667 9.60579Z" stroke="#333333" stroke-width="1.96244" stroke-linecap="round" stroke-linejoin="round"/>
<path d="M15.1722 26.6136C14.9424 27.0105 14.6123 27.34 14.215 27.5691C13.8177 27.7982 13.3671 27.9188 12.9085 27.9188C12.4499 27.9188 11.9993 27.7982 11.602 27.5691C11.2047 27.34 10.8746 27.0105 10.6448 26.6136" stroke="#333333" stroke-width="1.96244" stroke-linecap="round" stroke-linejoin="round"/>
</svg>
