<svg width="34" height="30" viewBox="0 0 34 30" fill="none" xmlns="http://www.w3.org/2000/svg">
<path d="M31.5833 0.337463H2.41659C1.86405 0.337463 1.33415 0.556957 0.943446 0.947657C0.552745 1.33836 0.333252 1.86826 0.333252 2.4208V27.4208C0.333252 27.9733 0.552745 28.5032 0.943446 28.8939C1.33415 29.2846 1.86405 29.5041 2.41659 29.5041H31.5833C32.1358 29.5041 32.6657 29.2846 33.0564 28.8939C33.4471 28.5032 33.6666 27.9733 33.6666 27.4208V2.4208C33.6666 1.86826 33.4471 1.33836 33.0564 0.947657C32.6657 0.556957 32.1358 0.337463 31.5833 0.337463ZM7.54158 4.50413C8.15965 4.50413 8.76384 4.68741 9.27774 5.03079C9.79165 5.37417 10.1922 5.86222 10.4287 6.43324C10.6652 7.00426 10.7271 7.63259 10.6065 8.23878C10.486 8.84497 10.1883 9.4018 9.75129 9.83884C9.31425 10.2759 8.75743 10.5735 8.15124 10.6941C7.54505 10.8147 6.91672 10.7528 6.3457 10.5162C5.77468 10.2797 5.28662 9.87919 4.94324 9.36528C4.59986 8.85138 4.41659 8.24719 4.41659 7.62913C4.41659 6.80033 4.74583 6.00547 5.33188 5.41942C5.91793 4.83337 6.71278 4.50413 7.54158 4.50413ZM4.49992 24.2958V20.025L10.7499 13.6916C10.9451 13.4976 11.2091 13.3887 11.4843 13.3887C11.7595 13.3887 12.0235 13.4976 12.2187 13.6916L14.9166 16.327L6.91658 24.2958H4.49992ZM29.4999 24.2958H9.8645L16.3541 17.8062L21.9791 12.1812C22.1743 11.9872 22.4383 11.8783 22.7135 11.8783C22.9887 11.8783 23.2527 11.9872 23.4478 12.1812L29.4999 18.2333V24.2958Z" fill="#333333"/>
</svg>
