<svg width="32" height="33" viewBox="0 0 32 33" fill="none" xmlns="http://www.w3.org/2000/svg">
<path d="M26.7078 17.349V16.6032V15.8476L28.5918 14.1991C28.9391 13.893 29.167 13.474 29.2353 13.0161C29.3035 12.5582 29.2077 12.0909 28.9647 11.6969L26.6489 7.77177C26.4768 7.47372 26.2294 7.22616 25.9314 7.05393C25.6335 6.8817 25.2955 6.79085 24.9513 6.7905C24.738 6.78886 24.5259 6.82201 24.3233 6.88862L21.9388 7.69327C21.5271 7.4197 21.0977 7.17383 20.6533 6.95731L20.1529 4.48451C20.0631 4.03273 19.8174 3.62691 19.4586 3.33809C19.0998 3.04926 18.6508 2.89583 18.1903 2.90466H13.598C13.1375 2.89583 12.6885 3.04926 12.3297 3.33809C11.9709 3.62691 11.7252 4.03273 11.6354 4.48451L11.135 6.95731C10.6874 7.17378 10.2547 7.41964 9.83969 7.69327L7.50426 6.84937C7.29947 6.79602 7.08739 6.77613 6.87625 6.7905C6.53209 6.79085 6.19408 6.8817 5.89612 7.05393C5.59816 7.22616 5.35073 7.47372 5.17865 7.77177L2.86284 11.6969C2.6338 12.0903 2.54869 12.5512 2.62209 13.0005C2.69548 13.4499 2.92282 13.8597 3.26517 14.1599L5.11977 15.8575V17.3588L3.26517 19.0073C2.91315 19.3096 2.6796 19.7267 2.60594 20.1848C2.53229 20.6429 2.62331 21.1122 2.86284 21.5096L5.17865 25.4347C5.35073 25.7327 5.59816 25.9803 5.89612 26.1525C6.19408 26.3247 6.53209 26.4156 6.87625 26.4159C7.08953 26.4176 7.30165 26.3844 7.50426 26.3178L9.88876 25.5132C10.3004 25.7868 10.7299 26.0326 11.1742 26.2491L11.6747 28.7219C11.7644 29.1737 12.0102 29.5795 12.369 29.8684C12.7278 30.1572 13.1767 30.3106 13.6372 30.3018H18.2688C18.7293 30.3106 19.1783 30.1572 19.5371 29.8684C19.8959 29.5795 20.1416 29.1737 20.2314 28.7219L20.7318 26.2491C21.1793 26.0327 21.6121 25.7868 22.0271 25.5132L24.4018 26.3178C24.6044 26.3844 24.8165 26.4176 25.0298 26.4159C25.374 26.4156 25.712 26.3247 26.0099 26.1525C26.3079 25.9803 26.5553 25.7327 26.7274 25.4347L28.9647 21.5096C29.1937 21.1161 29.2789 20.6552 29.2055 20.2059C29.1321 19.7566 28.9047 19.3467 28.5624 19.0466L26.7078 17.349ZM24.9513 24.4534L21.5855 23.3151C20.7976 23.9825 19.8971 24.5042 18.9263 24.8557L18.2296 28.3785H13.598L12.9013 24.895C11.9381 24.5335 11.0425 24.0127 10.2518 23.3544L6.87625 24.4534L4.56045 20.5283L7.22951 18.1733C7.04807 17.1575 7.04807 16.1176 7.22951 15.1019L4.56045 12.6781L6.87625 8.75304L10.242 9.89132C11.0299 9.22395 11.9304 8.70227 12.9013 8.35072L13.598 4.82795H18.2296L18.9263 8.31147C19.8895 8.67299 20.7851 9.19377 21.5757 9.85207L24.9513 8.75304L27.2671 12.6781L24.598 15.0332C24.7795 16.0489 24.7795 17.0888 24.598 18.1046L27.2671 20.5283L24.9513 24.4534Z" fill="#333333"/>
<path d="M15.9127 22.4895C14.7483 22.4895 13.6101 22.1442 12.6419 21.4973C11.6737 20.8504 10.9191 19.9309 10.4735 18.8551C10.0279 17.7794 9.91135 16.5956 10.1385 15.4536C10.3657 14.3116 10.9264 13.2626 11.7497 12.4392C12.5731 11.6158 13.6221 11.0551 14.7641 10.828C15.9062 10.6008 17.0899 10.7174 18.1657 11.163C19.2414 11.6086 20.1609 12.3632 20.8078 13.3313C21.4547 14.2995 21.8 15.4378 21.8 16.6022C21.8079 17.3775 21.661 18.1466 21.3679 18.8644C21.0748 19.5822 20.6415 20.2344 20.0932 20.7827C19.5449 21.3309 18.8928 21.7643 18.175 22.0574C17.4571 22.3504 16.688 22.4973 15.9127 22.4895ZM15.9127 12.6773C15.394 12.6652 14.8782 12.7585 14.3965 12.9514C13.9149 13.1444 13.4774 13.4331 13.1105 13.7999C12.7436 14.1668 12.4549 14.6043 12.262 15.086C12.069 15.5676 11.9757 16.0834 11.9878 16.6022C11.9757 17.1209 12.069 17.6367 12.262 18.1183C12.4549 18.6 12.7436 19.0375 13.1105 19.4044C13.4774 19.7713 13.9149 20.0599 14.3965 20.2529C14.8782 20.4458 15.394 20.5391 15.9127 20.527C16.4314 20.5391 16.9472 20.4458 17.4289 20.2529C17.9105 20.0599 18.348 19.7713 18.7149 19.4044C19.0818 19.0375 19.3705 18.6 19.5634 18.1183C19.7564 17.6367 19.8497 17.1209 19.8376 16.6022C19.8497 16.0834 19.7564 15.5676 19.5634 15.086C19.3705 14.6043 19.0818 14.1668 18.7149 13.7999C18.348 13.4331 17.9105 13.1444 17.4289 12.9514C16.9472 12.7585 16.4314 12.6652 15.9127 12.6773Z" fill="#333333"/>
</svg>
