<svg width="23" height="20" viewBox="0 0 23 20" fill="none" xmlns="http://www.w3.org/2000/svg">
<path d="M22.439 6.17422L16.6891 0.550477C15.4906 -0.621944 13.4171 0.19911 13.4171 1.87626V4.11055C11.7221 4.18399 10.0618 4.36641 8.59513 4.81329C7.19078 5.24102 6.07672 5.89063 5.28449 6.74376C4.32177 7.78125 3.83382 9.08594 3.83382 10.6227C3.83382 13.0327 5.15863 15.0154 7.22272 16.2773C8.72195 17.1956 10.6267 15.7832 10.0586 14.1C9.43907 12.2594 9.37354 11.3296 13.4171 11.0234V13.125C13.4171 14.8044 15.4923 15.6216 16.6891 14.4508L22.439 8.82579C23.1877 8.09375 23.1877 6.90625 22.439 6.17422ZM15.3338 13.125V9.06875C10.1951 9.14383 6.6486 9.97461 8.23855 14.6875C7.05981 13.9668 5.75048 12.6594 5.75048 10.6227C5.75048 6.3518 10.9071 5.97629 15.3338 5.94102V1.87501L21.0838 7.5L15.3338 13.125ZM16.3217 16.4255C16.6168 16.3431 16.8987 16.2207 17.1592 16.0621C17.4777 15.8687 17.8894 16.0944 17.8894 16.4611V18.125C17.8894 19.1605 17.0313 20 15.9727 20H1.91715C0.858595 20 0.000488281 19.1605 0.000488281 18.125V4.37501C0.000488281 3.33946 0.858595 2.50001 1.91715 2.50001H7.18798C7.4526 2.50001 7.66715 2.70989 7.66715 2.96876V3.14399C7.66715 3.33606 7.54788 3.50997 7.36491 3.57962C6.81779 3.78786 6.31091 4.03028 5.84556 4.30559C5.77002 4.35069 5.68329 4.3747 5.59479 4.37501H2.15674C2.0932 4.37501 2.03226 4.3997 1.98733 4.44365C1.9424 4.48761 1.91715 4.54722 1.91715 4.60938V17.8906C1.91715 17.9528 1.9424 18.0124 1.98733 18.0564C2.03226 18.1003 2.0932 18.125 2.15674 18.125H15.7331C15.7967 18.125 15.8576 18.1003 15.9025 18.0564C15.9475 18.0124 15.9727 17.9528 15.9727 17.8906V16.8763C15.9727 16.6666 16.1156 16.4834 16.3217 16.4255Z" fill="white"/>
</svg>
