<svg width="22" height="22" viewBox="0 0 22 22" fill="none" xmlns="http://www.w3.org/2000/svg">
<path d="M11.5781 2.03065L13.8802 6.06255C14.263 6.73308 14.9177 7.20474 15.675 7.35557L20.2367 8.26418C20.7485 8.36614 20.9499 8.99022 20.5942 9.37218L17.4688 12.7284C16.9356 13.301 16.6807 14.0787 16.7717 14.8558L17.3044 19.4055C17.3646 19.9203 16.8402 20.3039 16.3679 20.0905L12.0972 18.1609C11.3992 17.8456 10.5993 17.8456 9.90134 18.1609L5.63067 20.0905C5.15837 20.3039 4.6339 19.9203 4.69417 19.4055L5.22682 14.8558C5.31779 14.0787 5.06294 13.301 4.52978 12.7284L1.40428 9.37218C1.04858 8.99022 1.25 8.36614 1.76188 8.26418L6.32355 7.35557C7.0808 7.20474 7.73549 6.73308 8.11834 6.06255L10.4204 2.03065C10.6762 1.58256 11.3223 1.58256 11.5781 2.03065Z" fill="#FAFF00" stroke="#FAFF00" stroke-width="2"/>
</svg>
