<svg width="30" height="30" viewBox="0 0 30 30" fill="none" xmlns="http://www.w3.org/2000/svg">
<path d="M8.41797 9.91588C8.41797 8.25837 9.07641 6.66875 10.2484 5.49671C11.4205 4.32467 13.0101 3.66623 14.6676 3.66623C16.3251 3.66623 17.9147 4.32467 19.0868 5.49671C20.2588 6.66875 20.9173 8.25837 20.9173 9.91588C20.9173 11.5734 20.2588 13.163 19.0868 14.335C17.9147 15.5071 16.3251 16.1655 14.6676 16.1655C13.0101 16.1655 11.4205 15.5071 10.2484 14.335C9.07641 13.163 8.41797 11.5734 8.41797 9.91588ZM14.6676 13.6657C15.6621 13.6657 16.6159 13.2706 17.3191 12.5674C18.0223 11.8642 18.4174 10.9104 18.4174 9.91588C18.4174 8.92137 18.0223 7.9676 17.3191 7.26438C16.6159 6.56115 15.6621 6.16609 14.6676 6.16609C13.6731 6.16609 12.7193 6.56115 12.0161 7.26438C11.3129 7.9676 10.9178 8.92137 10.9178 9.91588C10.9178 10.9104 11.3129 11.8642 12.0161 12.5674C12.7193 13.2706 13.6731 13.6657 14.6676 13.6657Z" fill="white"/>
<path d="M7.59525 20.3455C6.66668 21.2741 5.93011 22.3765 5.42759 23.5898C4.92507 24.8031 4.66646 26.1035 4.6665 27.4167H7.1665C7.1665 25.4276 7.95668 23.5199 9.3632 22.1134C10.7697 20.7069 12.6774 19.9167 14.6665 19.9167C16.6556 19.9167 18.5633 20.7069 19.9698 22.1134C21.3763 23.5199 22.1665 25.4276 22.1665 27.4167H24.6665C24.6666 25.4389 24.0801 23.5054 22.9813 21.8608C21.8825 20.2163 20.3207 18.9345 18.4934 18.1776C16.6661 17.4207 14.6554 17.2226 12.7155 17.6085C10.7756 17.9944 8.99378 18.9469 7.59525 20.3455Z" fill="white"/>
</svg>
