<svg width="30" height="30" viewBox="0 0 30 30" fill="none" xmlns="http://www.w3.org/2000/svg">
<g clip-path="url(#clip0)">
<path d="M20.0109 2.8855C19.0043 2.89585 17.9719 3.09242 16.9618 3.4956L16.916 3.51506L16.8701 3.53869C16.2298 3.86477 15.6462 4.27269 15.1274 4.7561C12.3352 2.34117 7.89001 2.1659 4.84885 4.90758L4.81826 4.93538L4.79047 4.96456C2.12264 7.75115 2.18512 12.0426 3.78429 15.4335L3.79818 15.4599L3.81208 15.4877C5.69549 18.9754 9.21241 21.9388 12.4174 24.3751L12.4257 24.3821L12.4326 24.3876C12.6388 24.5388 12.9934 24.8513 13.4027 25.1589C13.812 25.4666 14.2743 25.8037 14.9508 25.933L15.1023 25.9622L15.2552 25.9497C15.9652 25.8884 16.2438 25.6263 16.7103 25.3326C17.1767 25.039 17.6931 24.6663 18.2237 24.2584C19.2696 23.4543 20.3518 22.5276 21.0643 21.8666C21.0735 21.8581 21.0886 21.8459 21.0977 21.8374C21.0992 21.8362 21.1004 21.8345 21.1019 21.8333C22.603 20.5524 24.0898 19.0758 25.3503 17.3389C25.3507 17.3383 25.3513 17.338 25.3517 17.3375C25.3541 17.3343 25.3563 17.331 25.3586 17.3278C27.3577 14.6362 28.3274 11.0091 27.1709 7.43556L27.15 7.37163L27.1222 7.31185C25.8237 4.50448 23.0307 2.85448 20.0109 2.8855ZM20.0471 5.08408C22.2228 5.03404 24.1298 6.19904 25.0766 8.19154C25.9513 10.9811 25.1952 13.8232 23.5659 16.0116L23.5617 16.0172L23.5576 16.0228C22.4226 17.589 21.048 18.96 19.6232 20.1725L19.6051 20.1892L19.5871 20.2059C18.9455 20.8031 17.8595 21.7335 16.8673 22.4962C16.3713 22.8776 15.8957 23.2184 15.5262 23.451C15.3873 23.5384 15.2552 23.598 15.1468 23.6441C15.0329 23.5819 14.8883 23.4942 14.7383 23.3815C14.4362 23.1545 14.1145 22.8646 13.764 22.606C13.7586 22.6018 13.7528 22.5976 13.7474 22.5935C10.6371 20.2278 7.36091 17.3552 5.78551 14.4593C4.50654 11.7269 4.56235 8.45654 6.3692 6.53496C8.82599 4.35054 12.4759 4.82544 14.2963 7.06723L15.183 8.15819L16.0404 7.045C16.5338 6.40494 17.1226 5.91563 17.8374 5.54408C18.5866 5.2514 19.331 5.10054 20.0471 5.08408Z" fill="white"/>
<g clip-path="url(#clip1)">
<path d="M17.182 14.9803C17.6087 14.9327 17.9032 14.4098 17.8398 13.8124C17.7763 13.215 17.379 12.7692 16.9523 12.8168C16.5256 12.8645 16.2311 13.3874 16.2946 13.9848C16.358 14.5822 16.7553 15.0279 17.182 14.9803Z" fill="white"/>
<path d="M11.8009 9.5689C12.2432 9.54167 12.5735 9.03951 12.5388 8.44729C12.5041 7.85507 12.1175 7.39706 11.6752 7.42429C11.233 7.45153 10.9027 7.95369 10.9374 8.5459C10.9721 9.13812 11.3587 9.59613 11.8009 9.5689Z" fill="white"/>
<path d="M14.3565 9.24661C14.4225 8.68451 14.1195 8.18482 13.6797 8.13051C13.2398 8.0762 12.8297 8.48784 12.7637 9.04993C12.6976 9.61202 13.0006 10.1117 13.4405 10.166C13.8803 10.2203 14.2904 9.8087 14.3565 9.24661Z" fill="white"/>
<path d="M10.0902 9.96957C10.5287 9.86382 10.7695 9.27828 10.628 8.66172C10.4865 8.04517 10.0163 7.63108 9.57773 7.73683C9.13919 7.84259 8.89841 8.42813 9.03993 9.04468C9.18145 9.66124 9.65167 10.0753 10.0902 9.96957Z" fill="white"/>
<path d="M16.3385 15.9593C17.9126 15.0569 19.7139 16.3298 19.4774 17.3026C19.2232 18.3448 18.2554 17.7831 17.5313 18.0543C17.0865 18.2209 16.4073 19.1563 15.6249 18.5851C14.9425 18.0864 15.3113 16.5476 16.3385 15.9593Z" fill="white"/>
<path d="M10.9744 10.1993C12.0996 9.89707 13.6685 10.793 13.4893 11.8149C13.3205 12.777 12.0162 12.3573 11.487 12.5592C10.7973 12.8219 9.93264 13.596 9.44092 12.8219C8.88669 11.9473 9.98681 10.4652 10.9744 10.1993Z" fill="white"/>
<path d="M8.86255 11.1747C9.24672 10.9474 9.32611 10.3511 9.03987 9.84291C8.75363 9.33473 8.21015 9.10707 7.82598 9.33442C7.4418 9.56176 7.36242 10.158 7.64866 10.6662C7.9349 11.1744 8.47838 11.402 8.86255 11.1747Z" fill="white"/>
<path d="M15.7676 15.6204C16.1668 15.3842 16.2527 14.7708 15.9595 14.2504C15.6664 13.73 15.1052 13.4995 14.7061 13.7357C14.3069 13.9719 14.221 14.5853 14.5142 15.1057C14.8073 15.6262 15.3685 15.8566 15.7676 15.6204Z" fill="white"/>
<path d="M14.6163 17.1607C14.9663 16.9062 14.9751 16.3025 14.6359 15.8123C14.2966 15.3222 13.7378 15.1312 13.3878 15.3858C13.0377 15.6403 13.0289 16.244 13.3681 16.7342C13.7074 17.2243 14.2662 17.4153 14.6163 17.1607Z" fill="white"/>
<path d="M19.0454 15.2552C19.4721 15.2282 19.7908 14.7549 19.7572 14.1981C19.7237 13.6412 19.3506 13.2117 18.9239 13.2387C18.4973 13.2657 18.1786 13.739 18.2121 14.2958C18.2456 14.8527 18.6187 15.2822 19.0454 15.2552Z" fill="white"/>
</g>
</g>
<defs>
<clipPath id="clip0">
<rect width="30" height="25.2155" fill="white" transform="translate(0 3)"/>
</clipPath>
<clipPath id="clip1">
<rect width="13.3326" height="13.6659" fill="white" transform="translate(7.00049 5.88538)"/>
</clipPath>
</defs>
</svg>
