<svg width="30" height="30" viewBox="0 0 30 30" fill="none" xmlns="http://www.w3.org/2000/svg">
<path d="M29.0001 15C29.0001 22.7321 22.732 29.0001 15 29.0001C7.26798 29.0001 0.999943 22.7321 0.999943 15C0.999943 7.26799 7.26798 0.999943 15 0.999943C22.732 0.999943 29.0001 7.26799 29.0001 15Z" stroke="#FF934C" stroke-width="1.99989"/>
<path d="M15.836 14.2404L19.7291 14.1604C20.0491 14.1604 20.3069 14.2404 20.5024 14.4004C20.7157 14.5604 20.8224 14.7737 20.8224 15.0404C20.8224 15.307 20.7157 15.5204 20.5024 15.6804C20.3069 15.8403 20.0491 15.9203 19.7291 15.9203C18.8403 15.9203 17.5426 15.8937 15.836 15.8403L15.9427 20.0268C15.9427 20.3645 15.8538 20.6312 15.676 20.8267C15.516 21.0223 15.2938 21.12 15.0094 21.12C14.4227 21.12 14.1294 20.7556 14.1294 20.0268C14.1294 19.9379 14.165 18.5424 14.2361 15.8403C12.4229 15.8937 11.2318 15.9203 10.663 15.9203C10.0941 15.9203 9.70301 15.8403 9.48969 15.6804C9.29414 15.5204 9.19637 15.307 9.19637 15.0404C9.19637 14.7737 9.29414 14.5604 9.48969 14.4004C9.70301 14.2404 9.96966 14.1604 10.2896 14.1604L14.2361 14.2404C14.165 11.7517 14.1294 10.4807 14.1294 10.4273C14.1294 9.69847 14.4227 9.33405 15.0094 9.33405C15.2938 9.33405 15.516 9.43182 15.676 9.62737C15.8538 9.82291 15.9427 10.0185 15.9427 10.214C15.9427 10.4095 15.9071 11.7517 15.836 14.2404Z" fill="#FF934C"/>
</svg>
